<!DOCTYPE svg PUBLIC "-//W3C//DTD SVG 1.1//EN" "http://www.w3.org/Graphics/SVG/1.1/DTD/svg11.dtd">
<!-- Uploaded to: SVG Repo, www.svgrepo.com, Transformed by: SVG Repo Mixer Tools -->
<svg fill="#dda769" width="181px" height="181px" viewBox="0 0 24.00 24.00" xmlns="http://www.w3.org/2000/svg" stroke="#dda769" stroke-width="0.00024000000000000003">
<g id="SVGRepo_bgCarrier" stroke-width="0"/>
<g id="SVGRepo_tracerCarrier" stroke-linecap="round" stroke-linejoin="round"/>
<g id="SVGRepo_iconCarrier">
<path d="M2.293,18.707a1,1,0,0,1,0-1.414l3-3a1,1,0,0,1,1.262-.125l2.318,1.545,2.42-2.42a1,1,0,0,1,1.414,1.414l-3,3a1,1,0,0,1-1.262.125L6.127,16.287l-2.42,2.42a1,1,0,0,1-1.414,0ZM22,3V21a1,1,0,0,1-1,1H3a1,1,0,0,1,0-2H20V8H4v4a1,1,0,0,1-2,0V3A1,1,0,0,1,3,2H21A1,1,0,0,1,22,3ZM4,6H20V4H4Zm10.707,6.707,1-1a1,1,0,0,0-1.414-1.414l-1,1a1,1,0,1,0,1.414,1.414Z"/>
</g>
</svg>